<svg width="36" height="36" viewBox="0 0 36 36" fill="none" xmlns="http://www.w3.org/2000/svg">
<rect width="36" height="36" />
<path fill-rule="evenodd" clip-rule="evenodd" d="M3.85629 0.389703C3.47747 0.794108 3.3789 1.63104 3.66004 2.05569C3.74913 2.19035 5.85624 3.43489 8.34239 4.82154L12.8627 7.34257L9.77653 7.7148C5.09815 8.27901 3.04661 8.9962 1.87905 10.4755C0.528263 12.1873 -0.175136 16.9307 0.0374271 22.8972C0.224192 28.1471 0.868497 30.9218 2.23428 32.3594C3.9242 34.1381 9.14083 35.0034 18.1547 35C26.4215 34.997 31.5186 34.2014 33.5203 32.6015C34.476 31.8376 35.0471 30.5149 35.6047 27.7729C36.0713 25.4781 36.1434 17.6419 35.7212 15.1279C35.362 12.9893 34.6601 10.9888 34.0052 10.2369C32.899 8.96637 29.9974 8.06317 25.6809 7.64534L23.0639 7.392L23.8304 6.94541C24.252 6.69953 26.2453 5.58773 28.2598 4.47445C32.2858 2.2498 32.7673 1.77913 32.0697 0.750429C31.3166 -0.3603 31.0878 -0.278907 24.3179 3.50136L17.9827 7.03895L11.6777 3.51947C7.92145 1.42266 5.14005 0 4.79695 0C4.48031 0 4.05695 0.175356 3.85629 0.389703ZM26.2429 11.3862C31.5744 12.0256 32.2476 13.1242 32.2582 21.2004C32.2659 26.9705 31.7592 29.0289 30.0858 30.0282C27.7818 31.4042 17.4451 31.8917 9.70619 30.9894C4.45319 30.377 3.82211 29.3044 3.82211 20.9873C3.82211 16.7185 3.86643 16.1634 4.31868 14.7736C4.89507 13.0023 5.57355 12.3233 7.2465 11.8432C8.35033 11.5264 11.4656 11.1399 14.0754 10.9959C16.702 10.851 23.6344 11.0734 26.2429 11.3862ZM7.76446 16.4875C7.38608 16.6533 6.79072 17.1506 6.44145 17.5931C5.89835 18.2811 5.80662 18.5898 5.80662 19.73C5.80662 21.1701 6.14509 21.8276 7.32478 22.6786C8.19201 23.3042 10.4804 23.3006 11.3582 22.6722C13.5356 21.1132 13.5475 18.3129 11.3833 16.7638C10.6235 16.2199 8.70975 16.0737 7.76446 16.4875ZM25.1841 16.4875C24.8057 16.6533 24.2103 17.1506 23.8611 17.5931C23.3206 18.2779 23.2262 18.592 23.2262 19.7089C23.2262 20.826 23.3204 21.1399 23.8617 21.8255C24.6756 22.8565 25.7587 23.2995 27.1503 23.1704C30.5462 22.8551 31.6011 18.7665 28.8029 16.7638C28.0431 16.2199 26.1294 16.0737 25.1841 16.4875ZM14.1857 25.2647C16.3312 27.0163 20.0645 27.7007 22.0686 26.7095C22.4022 26.5446 22.675 26.3607 22.675 26.301C22.675 26.2414 22.4831 26.2916 22.2485 26.4131C21.6252 26.7355 19.0332 26.6767 17.3926 26.3032C16.6096 26.1248 15.4189 25.6968 14.7466 25.3518C13.5775 24.7518 13.5531 24.748 14.1857 25.2647Z" fill="#E50914"/>
</svg>
