<svg width="210" height="295" viewBox="0 0 210 295" fill="none" xmlns="http://www.w3.org/2000/svg">
<rect width="210" height="295" fill="#252525"/>
<path d="M89.8208 162.883H121.253C121.894 162.883 122.35 162.624 122.621 162.107C122.893 161.589 122.831 161.059 122.436 160.517L114.005 149.053C113.66 148.609 113.241 148.388 112.748 148.388C112.255 148.388 111.836 148.585 111.491 148.979L102.985 160.073L97.3646 152.307C97.0194 151.864 96.6003 151.642 96.1073 151.642C95.6142 151.642 95.2198 151.864 94.924 152.307L88.7115 160.517C88.3663 161.059 88.317 161.589 88.5635 162.107C88.8101 162.624 89.2292 162.883 89.8208 162.883V162.883ZM83.6823 175.16C82.1045 175.16 80.7363 174.581 79.5776 173.422C78.4189 172.264 77.8396 170.895 77.8396 169.318V125.682C77.8396 124.055 78.4189 122.662 79.5776 121.504C80.7363 120.345 82.1045 119.766 83.6823 119.766H127.318C128.945 119.766 130.338 120.345 131.496 121.504C132.655 122.662 133.234 124.055 133.234 125.682V169.318C133.234 170.895 132.655 172.264 131.496 173.422C130.338 174.581 128.945 175.16 127.318 175.16H83.6823ZM83.6823 169.318H127.318V125.682H83.6823V169.318ZM83.6823 125.682V169.318V125.682Z" fill="white"/>
</svg>
